<svg width="32" height="32" viewBox="0 0 32 32" fill="none" xmlns="http://www.w3.org/2000/svg">
  <defs>
    <linearGradient id="globe-gradient" x1="0%" y1="0%" x2="100%" y2="100%">
      <stop offset="0%" style="stop-color:#8B5CF6;stop-opacity:1" />
      <stop offset="50%" style="stop-color:#3B82F6;stop-opacity:1" />
      <stop offset="100%" style="stop-color:#06B6D4;stop-opacity:1" />
    </linearGradient>
  </defs>
  <path d="M16 2C8.268 2 2 8.268 2 16s6.268 14 14 14 14-6.268 14-14S23.732 2 16 2zm0 2c1.657 0 3 4.03 3 9s-1.343 9-3 9-3-4.03-3-9 1.343-9 3-9zM8 16c0-1.105.895-2 2-2h12c1.105 0 2 .895 2 2s-.895 2-2 2H10c-1.105 0-2-.895-2-2zm-4 0c0-6.627 5.373-12 12-12 2.761 0 5.304.937 7.328 2.508C21.804 7.13 20.496 10.306 20.154 14H11.846c-.342-3.694-1.65-6.87-3.174-7.492A11.96 11.96 0 004 16c0 2.761.937 5.304 2.508 7.328C7.13 21.804 10.306 20.496 14 20.154v8.308c-3.694-.342-6.87-1.65-7.492-3.174A11.96 11.96 0 014 16zm24 0c0 6.627-5.373 12-12 12-2.761 0-5.304-.937-7.328-2.508C10.196 24.87 11.504 21.694 11.846 18h8.308c.342 3.694 1.65 6.87 3.174 7.492A11.96 11.96 0 0028 16c0-2.761-.937-5.304-2.508-7.328C24.87 10.196 21.694 11.504 18 11.846V3.538c3.694.342 6.87 1.65 7.492 3.174A11.96 11.96 0 0128 16z" fill="url(#globe-gradient)" stroke="url(#globe-gradient)" stroke-width="0.5"/>
</svg>
